<mxfile host="app.diagrams.net" agent="Mozilla/5.0 (Windows NT 10.0; Win64; x64) AppleWebKit/537.36 (KHTML, like Gecko) Chrome/133.0.0.0 Safari/537.36" version="26.0.16">
  <diagram name="Page-1" id="SOlax2BqmMib61U9e00-">
    <mxGraphModel dx="1434" dy="818" grid="1" gridSize="10" guides="1" tooltips="1" connect="1" arrows="1" fold="1" page="1" pageScale="1" pageWidth="850" pageHeight="1100" math="0" shadow="0">
      <root>
        <mxCell id="0" />
        <mxCell id="1" parent="0" />
        <mxCell id="yMuoYjZbkn46zVgACYHf-1" value="" style="strokeWidth=1;shadow=0;dashed=0;align=center;html=1;shape=mxgraph.mockup.containers.browserWindow;rSize=0;strokeColor=#666666;strokeColor2=#008cff;strokeColor3=#c4c4c4;mainText=,;recursiveResize=0;" parent="1" vertex="1">
          <mxGeometry y="60" width="850" height="1580" as="geometry" />
        </mxCell>
        <mxCell id="yMuoYjZbkn46zVgACYHf-12" value="" style="verticalLabelPosition=bottom;shadow=0;dashed=0;align=center;html=1;verticalAlign=top;strokeWidth=1;shape=mxgraph.mockup.graphics.simpleIcon;strokeColor=#999999;perimeterSpacing=1;" parent="yMuoYjZbkn46zVgACYHf-1" vertex="1">
          <mxGeometry y="180" width="850" height="240" as="geometry" />
        </mxCell>
        <mxCell id="yMuoYjZbkn46zVgACYHf-2" value="Home" style="strokeWidth=1;shadow=0;dashed=0;align=center;html=1;shape=mxgraph.mockup.containers.anchor;fontSize=17;fontColor=#666666;align=left;whiteSpace=wrap;" parent="yMuoYjZbkn46zVgACYHf-1" vertex="1">
          <mxGeometry x="60" y="12" width="110" height="26" as="geometry" />
        </mxCell>
        <mxCell id="yMuoYjZbkn46zVgACYHf-3" value="https://www.JacobWeltyMusic.com" style="strokeWidth=1;shadow=0;dashed=0;align=center;html=1;shape=mxgraph.mockup.containers.anchor;rSize=0;fontSize=17;fontColor=#666666;align=left;" parent="yMuoYjZbkn46zVgACYHf-1" vertex="1">
          <mxGeometry x="130" y="60" width="250" height="26" as="geometry" />
        </mxCell>
        <mxCell id="yMuoYjZbkn46zVgACYHf-5" value="" style="rounded=1;whiteSpace=wrap;html=1;direction=south;" parent="yMuoYjZbkn46zVgACYHf-1" vertex="1">
          <mxGeometry y="110" width="160" height="410" as="geometry" />
        </mxCell>
        <mxCell id="yMuoYjZbkn46zVgACYHf-6" value="" style="rounded=1;whiteSpace=wrap;html=1;" parent="yMuoYjZbkn46zVgACYHf-1" vertex="1">
          <mxGeometry y="110" width="160" height="70" as="geometry" />
        </mxCell>
        <mxCell id="yMuoYjZbkn46zVgACYHf-7" value="" style="rounded=1;whiteSpace=wrap;html=1;" parent="yMuoYjZbkn46zVgACYHf-1" vertex="1">
          <mxGeometry y="180" width="160" height="70" as="geometry" />
        </mxCell>
        <mxCell id="yMuoYjZbkn46zVgACYHf-8" value="" style="rounded=1;whiteSpace=wrap;html=1;" parent="yMuoYjZbkn46zVgACYHf-1" vertex="1">
          <mxGeometry y="250" width="160" height="70" as="geometry" />
        </mxCell>
        <mxCell id="yMuoYjZbkn46zVgACYHf-9" value="&lt;font style=&quot;font-size: 18px;&quot;&gt;Home&lt;/font&gt;" style="text;html=1;align=center;verticalAlign=middle;whiteSpace=wrap;rounded=0;" parent="yMuoYjZbkn46zVgACYHf-1" vertex="1">
          <mxGeometry x="50" y="130" width="70" height="40" as="geometry" />
        </mxCell>
        <mxCell id="yMuoYjZbkn46zVgACYHf-10" value="&lt;font style=&quot;font-size: 18px;&quot;&gt;Media&lt;/font&gt;" style="text;html=1;align=center;verticalAlign=middle;whiteSpace=wrap;rounded=0;" parent="yMuoYjZbkn46zVgACYHf-1" vertex="1">
          <mxGeometry x="50" y="200" width="60" height="30" as="geometry" />
        </mxCell>
        <mxCell id="yMuoYjZbkn46zVgACYHf-11" value="&lt;font style=&quot;font-size: 18px;&quot;&gt;Blog&lt;/font&gt;" style="text;html=1;align=center;verticalAlign=middle;whiteSpace=wrap;rounded=0;" parent="yMuoYjZbkn46zVgACYHf-1" vertex="1">
          <mxGeometry x="50" y="270" width="60" height="30" as="geometry" />
        </mxCell>
        <mxCell id="yMuoYjZbkn46zVgACYHf-13" value="&lt;font style=&quot;font-size: 18px;&quot;&gt;IMG&lt;/font&gt;" style="text;html=1;align=center;verticalAlign=middle;whiteSpace=wrap;rounded=0;fillColor=#E6E6E6;perimeterSpacing=1;" parent="yMuoYjZbkn46zVgACYHf-1" vertex="1">
          <mxGeometry x="390" y="280" width="70" height="40" as="geometry" />
        </mxCell>
        <mxCell id="yMuoYjZbkn46zVgACYHf-19" value="" style="rounded=0;whiteSpace=wrap;html=1;" parent="yMuoYjZbkn46zVgACYHf-1" vertex="1">
          <mxGeometry y="1060" width="850" height="370" as="geometry" />
        </mxCell>
        <mxCell id="yMuoYjZbkn46zVgACYHf-14" value="&lt;h1 style=&quot;margin-top: 0px;&quot;&gt;Jacob Welty&lt;/h1&gt;" style="text;html=1;whiteSpace=wrap;overflow=hidden;rounded=0;align=center;" parent="yMuoYjZbkn46zVgACYHf-1" vertex="1">
          <mxGeometry x="335" y="125" width="180" height="50" as="geometry" />
        </mxCell>
        <mxCell id="yMuoYjZbkn46zVgACYHf-15" value="" style="verticalLabelPosition=bottom;shadow=0;dashed=0;align=center;html=1;verticalAlign=top;strokeWidth=1;shape=mxgraph.mockup.navigation.coverFlow;strokeColor=#999999;" parent="yMuoYjZbkn46zVgACYHf-1" vertex="1">
          <mxGeometry y="1160" width="850" height="200" as="geometry" />
        </mxCell>
        <mxCell id="yMuoYjZbkn46zVgACYHf-16" value="&lt;font style=&quot;font-size: 18px;&quot;&gt;IMG&lt;/font&gt;" style="text;html=1;align=center;verticalAlign=middle;whiteSpace=wrap;rounded=0;fillColor=#E6E6E6;perimeterSpacing=1;" parent="yMuoYjZbkn46zVgACYHf-1" vertex="1">
          <mxGeometry x="390" y="1240" width="70" height="40" as="geometry" />
        </mxCell>
        <mxCell id="yMuoYjZbkn46zVgACYHf-17" value="" style="verticalLabelPosition=bottom;shadow=0;dashed=0;align=center;html=1;verticalAlign=top;strokeWidth=1;shape=mxgraph.mockup.navigation.pageControl;fillColor=#999999;strokeColor=#ddeeff;" parent="yMuoYjZbkn46zVgACYHf-1" vertex="1">
          <mxGeometry x="375" y="1370" width="100" height="30" as="geometry" />
        </mxCell>
        <mxCell id="yMuoYjZbkn46zVgACYHf-18" style="edgeStyle=orthogonalEdgeStyle;rounded=0;orthogonalLoop=1;jettySize=auto;html=1;exitX=1;exitY=0.5;exitDx=0;exitDy=0;" parent="yMuoYjZbkn46zVgACYHf-1" source="yMuoYjZbkn46zVgACYHf-5" target="yMuoYjZbkn46zVgACYHf-5" edge="1">
          <mxGeometry relative="1" as="geometry" />
        </mxCell>
        <mxCell id="yMuoYjZbkn46zVgACYHf-20" value="&lt;h1 style=&quot;margin-top: 0px;&quot;&gt;Media&lt;/h1&gt;" style="text;html=1;whiteSpace=wrap;overflow=hidden;rounded=0;align=center;" parent="yMuoYjZbkn46zVgACYHf-1" vertex="1">
          <mxGeometry x="335" y="1080" width="180" height="50" as="geometry" />
        </mxCell>
        <mxCell id="yMuoYjZbkn46zVgACYHf-22" value="&lt;font style=&quot;font-size: 18px;&quot;&gt;Upcoming Shows&lt;/font&gt;" style="swimlane;fontStyle=0;childLayout=stackLayout;horizontal=1;startSize=30;horizontalStack=0;resizeParent=1;resizeParentMax=0;resizeLast=0;collapsible=1;marginBottom=0;whiteSpace=wrap;html=1;" parent="yMuoYjZbkn46zVgACYHf-1" vertex="1">
          <mxGeometry x="273" y="480" width="305" height="120" as="geometry">
            <mxRectangle x="285" y="440" width="60" height="30" as="alternateBounds" />
          </mxGeometry>
        </mxCell>
        <mxCell id="yMuoYjZbkn46zVgACYHf-23" value="&lt;font style=&quot;font-size: 16px;&quot;&gt;Show 1&lt;span style=&quot;white-space: pre;&quot;&gt;&#x9;&lt;/span&gt;&lt;span style=&quot;white-space: pre;&quot;&gt;&#x9;&lt;/span&gt; - Location -&lt;span style=&quot;white-space: pre;&quot;&gt;&#x9;&lt;/span&gt;&lt;span style=&quot;white-space: pre;&quot;&gt;&#x9;&lt;/span&gt; Date&lt;/font&gt;" style="text;strokeColor=none;fillColor=none;align=center;verticalAlign=middle;spacingLeft=4;spacingRight=4;overflow=hidden;points=[[0,0.5],[1,0.5]];portConstraint=eastwest;rotatable=0;whiteSpace=wrap;html=1;" parent="yMuoYjZbkn46zVgACYHf-22" vertex="1">
          <mxGeometry y="30" width="305" height="30" as="geometry" />
        </mxCell>
        <mxCell id="yMuoYjZbkn46zVgACYHf-24" value="&lt;font style=&quot;font-size: 16px;&quot;&gt;Show 2&lt;span style=&quot;white-space: pre;&quot;&gt;&#x9;&lt;/span&gt;&lt;span style=&quot;white-space: pre;&quot;&gt;&#x9;&lt;/span&gt; - Location - &lt;span style=&quot;white-space: pre;&quot;&gt;&#x9;&lt;/span&gt;&lt;span style=&quot;white-space: pre;&quot;&gt;&#x9;&lt;/span&gt;Date&lt;/font&gt;" style="text;strokeColor=none;fillColor=none;align=center;verticalAlign=middle;spacingLeft=4;spacingRight=4;overflow=hidden;points=[[0,0.5],[1,0.5]];portConstraint=eastwest;rotatable=0;whiteSpace=wrap;html=1;" parent="yMuoYjZbkn46zVgACYHf-22" vertex="1">
          <mxGeometry y="60" width="305" height="30" as="geometry" />
        </mxCell>
        <mxCell id="yMuoYjZbkn46zVgACYHf-25" value="&lt;font style=&quot;font-size: 16px;&quot;&gt;Show 3&lt;span style=&quot;white-space: pre;&quot;&gt;&#x9;&lt;/span&gt;&lt;span style=&quot;white-space: pre;&quot;&gt;&#x9;&lt;/span&gt; - Location - &lt;span style=&quot;white-space: pre;&quot;&gt;&#x9;&lt;/span&gt;&lt;span style=&quot;white-space: pre;&quot;&gt;&#x9;&lt;/span&gt;Date&lt;/font&gt;" style="text;strokeColor=none;fillColor=none;align=center;verticalAlign=middle;spacingLeft=4;spacingRight=4;overflow=hidden;points=[[0,0.5],[1,0.5]];portConstraint=eastwest;rotatable=0;whiteSpace=wrap;html=1;" parent="yMuoYjZbkn46zVgACYHf-22" vertex="1">
          <mxGeometry y="90" width="305" height="30" as="geometry" />
        </mxCell>
        <mxCell id="yMuoYjZbkn46zVgACYHf-26" value="" style="verticalLabelPosition=bottom;shadow=0;dashed=0;align=center;html=1;verticalAlign=top;strokeWidth=1;shape=mxgraph.mockup.forms.horSlider;strokeColor=#999999;sliderStyle=basic;sliderPos=97.902;handleStyle=circle;fillColor2=#ddeeff;direction=north;" parent="yMuoYjZbkn46zVgACYHf-1" vertex="1">
          <mxGeometry x="810" y="180" width="30" height="1430" as="geometry" />
        </mxCell>
        <mxCell id="yMuoYjZbkn46zVgACYHf-30" value="Book Now" style="shape=rectangle;strokeColor=none;fillColor=none;linkText=;fontSize=17;fontColor=#0000ff;fontStyle=4;html=1;align=center;" parent="yMuoYjZbkn46zVgACYHf-1" vertex="1">
          <mxGeometry x="700" y="130" width="150" height="30" as="geometry" />
        </mxCell>
        <mxCell id="yMuoYjZbkn46zVgACYHf-31" value="" style="verticalLabelPosition=bottom;shadow=0;dashed=0;align=center;html=1;verticalAlign=top;strokeWidth=1;shape=mxgraph.mockup.graphics.simpleIcon;strokeColor=#999999;" parent="yMuoYjZbkn46zVgACYHf-1" vertex="1">
          <mxGeometry x="170" y="700" width="510" height="270" as="geometry" />
        </mxCell>
        <mxCell id="yMuoYjZbkn46zVgACYHf-32" value="&lt;h1 style=&quot;margin-top: 0px;&quot;&gt;Video&lt;/h1&gt;" style="text;html=1;whiteSpace=wrap;overflow=hidden;rounded=0;align=center;" parent="yMuoYjZbkn46zVgACYHf-1" vertex="1">
          <mxGeometry x="335" y="640" width="180" height="50" as="geometry" />
        </mxCell>
        <mxCell id="yMuoYjZbkn46zVgACYHf-33" value="&lt;font style=&quot;font-size: 18px;&quot;&gt;Video&lt;/font&gt;" style="text;html=1;align=center;verticalAlign=middle;whiteSpace=wrap;rounded=0;fillColor=#E6E6E6;perimeterSpacing=1;" parent="yMuoYjZbkn46zVgACYHf-1" vertex="1">
          <mxGeometry x="390.5" y="815" width="70" height="40" as="geometry" />
        </mxCell>
        <mxCell id="yMuoYjZbkn46zVgACYHf-34" value="" style="rounded=0;whiteSpace=wrap;html=1;" parent="yMuoYjZbkn46zVgACYHf-1" vertex="1">
          <mxGeometry y="1510" width="850" height="70" as="geometry" />
        </mxCell>
        <mxCell id="yMuoYjZbkn46zVgACYHf-35" value="Created by August Case" style="text;html=1;align=center;verticalAlign=middle;whiteSpace=wrap;rounded=0;" parent="yMuoYjZbkn46zVgACYHf-1" vertex="1">
          <mxGeometry x="10" y="1530" width="80" height="30" as="geometry" />
        </mxCell>
        <mxCell id="yMuoYjZbkn46zVgACYHf-40" value="Contact" style="shape=rectangle;strokeColor=none;fillColor=none;linkText=;fontSize=17;fontColor=#0000ff;fontStyle=4;html=1;align=center;" parent="yMuoYjZbkn46zVgACYHf-1" vertex="1">
          <mxGeometry x="350" y="1530" width="150" height="30" as="geometry" />
        </mxCell>
        <mxCell id="yMuoYjZbkn46zVgACYHf-54" value="" style="whiteSpace=wrap;html=1;aspect=fixed;" parent="yMuoYjZbkn46zVgACYHf-1" vertex="1">
          <mxGeometry x="200" y="210" width="460" height="460" as="geometry" />
        </mxCell>
        <mxCell id="yMuoYjZbkn46zVgACYHf-55" value="From" style="strokeWidth=1;shadow=0;dashed=0;align=center;html=1;shape=mxgraph.mockup.forms.anchor;align=right;spacingRight=2;fontColor=#666666;" parent="yMuoYjZbkn46zVgACYHf-1" vertex="1">
          <mxGeometry x="235" y="230" width="50" height="18" as="geometry" />
        </mxCell>
        <mxCell id="yMuoYjZbkn46zVgACYHf-56" value="john@jgraph.com" style="strokeWidth=1;shadow=0;dashed=0;align=center;html=1;shape=mxgraph.mockup.forms.rrect;fillColor=#ffffff;rSize=0;fontColor=#666666;align=left;spacingLeft=3;strokeColor=#999999;" parent="yMuoYjZbkn46zVgACYHf-1" vertex="1">
          <mxGeometry x="285" y="230" width="350" height="18" as="geometry" />
        </mxCell>
        <mxCell id="yMuoYjZbkn46zVgACYHf-57" value="Subject" style="strokeWidth=1;shadow=0;dashed=0;align=center;html=1;shape=mxgraph.mockup.forms.anchor;align=right;spacingRight=2;fontColor=#666666;" parent="yMuoYjZbkn46zVgACYHf-1" vertex="1">
          <mxGeometry x="235" y="265" width="50" height="18" as="geometry" />
        </mxCell>
        <mxCell id="yMuoYjZbkn46zVgACYHf-58" value="Greeting" style="strokeWidth=1;shadow=0;dashed=0;align=center;html=1;shape=mxgraph.mockup.forms.rrect;fillColor=#ffffff;rSize=0;fontColor=#666666;align=left;spacingLeft=3;strokeColor=#999999;" parent="yMuoYjZbkn46zVgACYHf-1" vertex="1">
          <mxGeometry x="285" y="265" width="350" height="18" as="geometry" />
        </mxCell>
        <mxCell id="yMuoYjZbkn46zVgACYHf-59" value="To" style="strokeWidth=1;shadow=0;dashed=0;align=center;html=1;shape=mxgraph.mockup.forms.anchor;align=right;spacingRight=2;fontColor=#666666;" parent="yMuoYjZbkn46zVgACYHf-1" vertex="1">
          <mxGeometry x="235" y="300" width="50" height="18" as="geometry" />
        </mxCell>
        <mxCell id="yMuoYjZbkn46zVgACYHf-60" value="fred@jgraph.com" style="strokeWidth=1;shadow=0;dashed=0;align=center;html=1;shape=mxgraph.mockup.forms.rrect;fillColor=#ffffff;rSize=0;fontColor=#666666;align=left;spacingLeft=3;strokeColor=#999999;" parent="yMuoYjZbkn46zVgACYHf-1" vertex="1">
          <mxGeometry x="285" y="300" width="350" height="18" as="geometry" />
        </mxCell>
        <mxCell id="yMuoYjZbkn46zVgACYHf-61" value="CC" style="strokeWidth=1;shadow=0;dashed=0;align=center;html=1;shape=mxgraph.mockup.forms.anchor;align=right;spacingRight=2;fontColor=#666666;" parent="yMuoYjZbkn46zVgACYHf-1" vertex="1">
          <mxGeometry x="235" y="335" width="50" height="18" as="geometry" />
        </mxCell>
        <mxCell id="yMuoYjZbkn46zVgACYHf-62" value="" style="strokeWidth=1;shadow=0;dashed=0;align=center;html=1;shape=mxgraph.mockup.forms.rrect;fillColor=#ffffff;rSize=0;fontColor=#666666;align=left;spacingLeft=3;strokeColor=#999999;" parent="yMuoYjZbkn46zVgACYHf-1" vertex="1">
          <mxGeometry x="285" y="335" width="350" height="18" as="geometry" />
        </mxCell>
        <mxCell id="yMuoYjZbkn46zVgACYHf-63" value="BCC" style="strokeWidth=1;shadow=0;dashed=0;align=center;html=1;shape=mxgraph.mockup.forms.anchor;align=right;spacingRight=2;fontColor=#666666;" parent="yMuoYjZbkn46zVgACYHf-1" vertex="1">
          <mxGeometry x="235" y="370" width="50" height="18" as="geometry" />
        </mxCell>
        <mxCell id="yMuoYjZbkn46zVgACYHf-64" value="" style="strokeWidth=1;shadow=0;dashed=0;align=center;html=1;shape=mxgraph.mockup.forms.rrect;fillColor=#ffffff;rSize=0;fontColor=#666666;align=left;spacingLeft=3;strokeColor=#999999;" parent="yMuoYjZbkn46zVgACYHf-1" vertex="1">
          <mxGeometry x="285" y="370" width="350" height="18" as="geometry" />
        </mxCell>
        <mxCell id="yMuoYjZbkn46zVgACYHf-65" value="Lorem ipsum dolor sit amet, consectetur adipisicing elit, sed do eiusmod tempor incididunt ut labore et dolore magna aliqua. Ut enim ad minim veniam, quis nostrud exercitation ullamco laboris nisi ut aliquip ex ea commodo consequat. Duis aute irure dolor in reprehenderit in voluptate velit esse cillum dolore eu fugiat nulla pariatur. Excepteur sint occaecat cupidatat non proident, sunt in culpa qui officia deserunt mollit anim id est laborum." style="strokeWidth=1;shadow=0;dashed=0;align=center;html=1;shape=mxgraph.mockup.forms.rrect;fillColor=#ffffff;rSize=0;fontColor=#666666;align=left;spacingLeft=3;strokeColor=#999999;verticalAlign=top;whiteSpace=wrap;" parent="yMuoYjZbkn46zVgACYHf-1" vertex="1">
          <mxGeometry x="235" y="405" width="400" height="125" as="geometry" />
        </mxCell>
        <mxCell id="yMuoYjZbkn46zVgACYHf-66" value="Submit" style="strokeWidth=1;shadow=0;dashed=0;align=center;html=1;shape=mxgraph.mockup.buttons.button;strokeColor=#666666;fontColor=#ffffff;mainText=;buttonStyle=round;fontSize=17;fontStyle=1;fillColor=#008cff;whiteSpace=wrap;" parent="yMuoYjZbkn46zVgACYHf-1" vertex="1">
          <mxGeometry x="393.75" y="570" width="72.5" height="30" as="geometry" />
        </mxCell>
        <mxCell id="yMuoYjZbkn46zVgACYHf-67" value="" style="endArrow=classic;startArrow=classic;html=1;rounded=0;" parent="yMuoYjZbkn46zVgACYHf-1" edge="1">
          <mxGeometry width="50" height="50" relative="1" as="geometry">
            <mxPoint x="680" y="210" as="sourcePoint" />
            <mxPoint x="730" y="160" as="targetPoint" />
          </mxGeometry>
        </mxCell>
        <mxCell id="yMuoYjZbkn46zVgACYHf-4" value="&lt;h1 style=&quot;margin-top: 0px;&quot;&gt;Jacob Welty - Website&lt;/h1&gt;" style="text;html=1;whiteSpace=wrap;overflow=hidden;rounded=0;align=center;" parent="1" vertex="1">
          <mxGeometry y="20" width="850" height="40" as="geometry" />
        </mxCell>
      </root>
    </mxGraphModel>
  </diagram>
</mxfile>
